<svg width="36" height="52" viewBox="0 0 36 52" fill="none" xmlns="http://www.w3.org/2000/svg">
<path d="M36 17.9309C36 14.4609 34.9892 11.0655 33.0904 8.15642C31.1915 5.24734 28.4862 2.94961 25.3024 1.54188C22.1186 0.134149 18.5932 -0.323092 15.1537 0.225609C11.7142 0.77431 8.50843 2.30538 5.92515 4.63313C3.34187 6.96088 1.49208 9.9853 0.60013 13.3396C-0.291825 16.6939 -0.187625 20.2339 0.900092 23.5304C1.98781 26.8268 4.01231 29.7381 6.72807 31.9111C9.44382 34.084 12.7341 35.4254 16.2 35.7723V41.2413H9C8.52261 41.2413 8.06477 41.4302 7.72721 41.7665C7.38964 42.1028 7.2 42.5589 7.2 43.0344C7.2 43.51 7.38964 43.9661 7.72721 44.3024C8.06477 44.6386 8.52261 44.8276 9 44.8276H16.2V50.2069C16.2 50.6824 16.3896 51.1385 16.7272 51.4748C17.0648 51.8111 17.5226 52 18 52C18.4774 52 18.9352 51.8111 19.2728 51.4748C19.6104 51.1385 19.8 50.6824 19.8 50.2069V44.8276H27C27.4774 44.8276 27.9352 44.6386 28.2728 44.3024C28.6104 43.9661 28.8 43.51 28.8 43.0344C28.8 42.5589 28.6104 42.1028 28.2728 41.7665C27.9352 41.4302 27.4774 41.2413 27 41.2413H19.8V35.7723C24.2378 35.3225 28.3505 33.2494 31.3428 29.9538C34.3352 26.6583 35.9945 22.3745 36 17.9309ZM3.6 17.9309C3.6 15.0937 4.44455 12.3203 6.02684 9.9613C7.60913 7.6023 9.8581 5.76368 12.4894 4.67795C15.1206 3.59222 18.016 3.30814 20.8093 3.86164C23.6026 4.41514 26.1685 5.78136 28.1823 7.78753C30.1962 9.7937 31.5677 12.3497 32.1233 15.1323C32.6789 17.915 32.3938 20.7993 31.3039 23.4204C30.214 26.0416 28.3683 28.282 26.0002 29.8582C23.6321 31.4345 20.8481 32.2758 18 32.2758C14.1822 32.2716 10.5219 30.759 7.82227 28.0697C5.12265 25.3804 3.60417 21.7341 3.6 17.9309Z" fill="#F466E6"/>
</svg>
