<svg width="45" height="61" viewBox="0 0 45 61" fill="none" xmlns="http://www.w3.org/2000/svg">
<path d="M42.7513 0H31.5079C30.9115 0 30.3395 0.238028 29.9178 0.661722C29.4961 1.08541 29.2592 1.66007 29.2592 2.25926C29.2592 2.85845 29.4961 3.4331 29.9178 3.8568C30.3395 4.28049 30.9115 4.51852 31.5079 4.51852H37.3235L30.2542 11.6211C28.1785 9.67751 25.6746 8.25483 22.947 7.46923C20.2195 6.68363 17.3456 6.55739 14.5603 7.10081C11.7749 7.64424 9.15693 8.84192 6.92026 10.596C4.68358 12.3502 2.89161 14.6109 1.6907 17.1938C0.489796 19.7766 -0.0859884 22.6082 0.0103798 25.4573C0.106748 28.3064 0.872534 31.0922 2.24519 33.5872C3.61785 36.0821 5.55845 38.2155 7.90849 39.813C10.2585 41.4105 12.9514 42.4269 15.767 42.7791V47.4444H9.02097C8.42458 47.4444 7.85262 47.6825 7.43091 48.1062C7.0092 48.5299 6.77228 49.1045 6.77228 49.7037C6.77228 50.3029 7.0092 50.8775 7.43091 51.3012C7.85262 51.7249 8.42458 51.963 9.02097 51.963H15.767V58.7407C15.767 59.3399 16.004 59.9146 16.4257 60.3383C16.8474 60.762 17.4193 61 18.0157 61C18.6121 61 19.1841 60.762 19.6058 60.3383C20.0275 59.9146 20.2644 59.3399 20.2644 58.7407V51.963H27.0105C27.6069 51.963 28.1788 51.7249 28.6005 51.3012C29.0223 50.8775 29.2592 50.3029 29.2592 49.7037C29.2592 49.1045 29.0223 48.5299 28.6005 48.1062C28.1788 47.6825 27.6069 47.4444 27.0105 47.4444H20.2644V42.7791C23.2786 42.4008 26.1481 41.2609 28.6047 39.4659C31.0613 37.671 33.0249 35.2795 34.3119 32.5151C35.599 29.7507 36.1674 26.7036 35.9641 23.6586C35.7608 20.6136 34.7924 17.6701 33.1494 15.1031L40.5026 7.71255V13.5556C40.5026 14.1547 40.7395 14.7294 41.1612 15.1531C41.583 15.5768 42.1549 15.8148 42.7513 15.8148C43.3477 15.8148 43.9197 15.5768 44.3414 15.1531C44.7631 14.7294 45 14.1547 45 13.5556V2.25926C45 1.66007 44.7631 1.08541 44.3414 0.661722C43.9197 0.238028 43.3477 0 42.7513 0ZM18.0157 38.4074C15.3472 38.4074 12.7387 37.6124 10.5199 36.1229C8.30113 34.6334 6.57181 32.5163 5.55062 30.0393C4.52943 27.5624 4.26224 24.8368 4.78284 22.2073C5.30344 19.5778 6.58844 17.1624 8.47535 15.2666C10.3623 13.3708 12.7663 12.0798 15.3835 11.5568C18.0008 11.0337 20.7136 11.3022 23.1789 12.3282C25.6443 13.3541 27.7515 15.0916 29.234 17.3208C30.7166 19.55 31.5079 22.1708 31.5079 24.8519C31.5041 28.4459 30.0815 31.8916 27.552 34.4329C25.0225 36.9743 21.5929 38.4037 18.0157 38.4074Z" fill="#CCCCCC"/>
</svg>
