<svg width="47" height="47" viewBox="0 0 47 47" fill="none" xmlns="http://www.w3.org/2000/svg">
<path d="M15.5 15.5C18.8325 15.5 21.9583 16.5592 24.4642 18.3675L37.665 5.16667H25.8333V0H46.5V20.6667H41.3333V8.80917L28.1325 21.9583C29.9408 24.5417 31 27.6417 31 31C31 35.1109 29.367 39.0533 26.4602 41.9602C23.5533 44.867 19.6109 46.5 15.5 46.5C11.3891 46.5 7.44666 44.867 4.53985 41.9602C1.63303 39.0533 0 35.1109 0 31C0 26.8891 1.63303 22.9467 4.53985 20.0398C7.44666 17.133 11.3891 15.5 15.5 15.5ZM15.5 20.6667C12.7594 20.6667 10.1311 21.7554 8.19323 23.6932C6.25535 25.6311 5.16667 28.2594 5.16667 31C5.16667 33.7406 6.25535 36.3689 8.19323 38.3068C10.1311 40.2446 12.7594 41.3333 15.5 41.3333C18.2406 41.3333 20.8689 40.2446 22.8068 38.3068C24.7446 36.3689 25.8333 33.7406 25.8333 31C25.8333 28.2594 24.7446 25.6311 22.8068 23.6932C20.8689 21.7554 18.2406 20.6667 15.5 20.6667Z" fill="#699BF7"/>
</svg>
