<svg width="37" height="37" viewBox="0 0 37 37" fill="none" xmlns="http://www.w3.org/2000/svg">
<path d="M20.4561 5.65606C20.9186 5.19363 21.5459 4.93385 22.2 4.93385C22.8541 4.93385 23.4814 5.19363 23.9439 5.65606L35.0439 16.7561C35.5064 17.2186 35.7661 17.8459 35.7661 18.5C35.7661 19.1541 35.5064 19.7814 35.0439 20.2439L23.9439 31.3439C23.4787 31.7932 22.8556 32.0419 22.2089 32.0363C21.5621 32.0306 20.9435 31.7712 20.4861 31.3139C20.0288 30.8565 19.7694 30.2379 19.7637 29.5911C19.7581 28.9444 20.0067 28.3213 20.4561 27.8561L27.1333 20.9667H3.7C3.0458 20.9667 2.4184 20.7068 1.95581 20.2442C1.49322 19.7816 1.23334 19.1542 1.23334 18.5C1.23334 17.8458 1.49322 17.2184 1.95581 16.7558C2.4184 16.2932 3.0458 16.0333 3.7 16.0333H27.1333L20.4561 9.14393C19.9936 8.68136 19.7339 8.05406 19.7339 7.39999C19.7339 6.74592 19.9936 6.11863 20.4561 5.65606Z" fill="black"/>
</svg>
